<svg width="72" height="14" viewBox="0 0 72 14" fill="none" xmlns="http://www.w3.org/2000/svg">
<path d="M7.30537 4.864C7.30537 6.50348 6.51099 7.61388 4.49924 7.61388H3.86356V2.39249C4.08955 2.37974 4.3006 2.37974 4.49924 2.37974C6.40412 2.37956 7.30537 3.27823 7.30537 4.864ZM5.24036 9.88731C8.83996 9.88731 11.1158 8.03627 11.1158 4.81174C11.1157 1.26862 8.68091 0 4.71101 0C3.1757 0 1.323 0.105419 0 0.263997V12.9017H3.86374V9.88731H5.24036ZM57.0084 4.864C57.0084 6.50348 56.2151 7.61388 54.2028 7.61388H53.5693V2.39249C53.7933 2.37974 54.0047 2.37974 54.2028 2.37974C56.1079 2.37956 57.0084 3.27823 57.0084 4.864ZM54.9457 9.88731C58.5425 9.88731 60.8196 8.03627 60.8196 4.81174C60.8196 1.26862 58.3852 0 54.4149 0C52.88 0 51.0262 0.105419 49.703 0.263997V12.9017H53.5688V9.88731H54.9457ZM65.8475 3.48925C65.8475 2.80214 66.5364 2.48444 67.6469 2.48444C68.8648 2.48444 70.1891 2.74898 71.0882 3.12055L70.771 0.370134C69.7646 0.158578 68.8648 0 67.2244 0C64.1011 0 61.9844 1.22983 61.9844 3.80748C61.9844 8.24783 68.0197 7.3497 68.0197 9.41175C68.0197 10.2041 67.4366 10.6269 66.0067 10.6269C64.7382 10.6269 62.7783 10.2041 61.614 9.62277L62.0386 12.5318C63.202 12.9547 64.79 13.1655 66.0609 13.1655C69.2887 13.1655 71.936 12.1078 71.936 8.93476C71.936 4.70632 65.8475 5.49867 65.8475 3.48925ZM46.7929 0.263997H42.9292V12.9017H46.7929V0.263997ZM31.1244 0.263997H27.2603V12.9017H31.1244V0.263997ZM37.8468 10.3629V0.263997H33.9827V12.9017H40.9705L41.5522 10.3629H37.8468ZM24.4022 0.263997H20.5381V5.28712H16.5151V0.263997H12.6503V12.9017H16.5149V7.93086H20.5379V12.9017H24.402L24.4022 0.263997Z" fill="white"/>
</svg>
