<svg width="72" height="24" viewBox="0 0 72 24" fill="none" xmlns="http://www.w3.org/2000/svg">
<path fill-rule="evenodd" clip-rule="evenodd" d="M62.965 14.6784C69.0781 11.6874 72.4497 8.28264 71.9516 5.46287C70.9032 -0.463443 52.9411 -1.41798 34.4043 1.87291C25.9212 3.37928 17.8081 5.64025 12.3156 7.88239C12.6073 7.86395 12.8113 7.87747 12.8113 7.87747C15.1854 7.94302 15.0403 9.41906 15.0403 9.41906L15.044 10.3208H13.1513V9.7087C13.1513 9.27445 12.6225 9.24536 12.6225 9.24536C12.2177 9.24536 12.1231 9.52025 12.1231 9.52025C11.899 9.93976 12.2824 10.3019 12.2824 10.3019C12.4778 10.5194 13.4619 10.975 13.4619 10.975C13.7806 11.0983 14.2943 11.4166 14.2943 11.4166C15.2571 11.9955 15.1698 13.0955 15.1698 13.0955V13.8198C15.0543 15.6149 12.579 15.5637 12.579 15.5637C9.98745 15.5637 10.044 13.8636 10.044 13.8636V12.975H12.0604V13.5871C12.0604 14.1082 12.5639 14.1315 12.5639 14.1315C13.1141 14.1528 13.1608 13.6207 13.1608 13.6207C13.2357 13.1032 12.6655 12.7776 12.6655 12.7776C12.1616 12.5161 11.6597 12.2508 11.1599 11.9816C10.6966 11.6776 10.5086 11.4023 10.5086 11.4023C10.1755 10.9828 10.1976 10.331 10.1976 10.331V9.76647C10.1976 8.98481 10.4078 8.76072 10.4078 8.76072C10.4165 8.74384 10.4257 8.72718 10.4352 8.71074C3.66416 11.8398 -0.480899 15.4666 0.0443005 18.4486C1.10986 24.4978 18.0494 25.2914 37.973 22.2229C47.1467 20.8104 55.1304 18.2098 61.1723 15.5166C61.1293 15.5187 61.0834 15.5187 61.0395 15.5187C61.0395 15.5187 58.5975 15.7161 58.5397 13.7477V9.94017C58.5397 9.94017 58.2357 7.84142 60.9715 7.84142C60.9715 7.84142 62.7528 7.78365 63.2231 8.8402C63.2231 8.8402 63.455 9.12287 63.3935 10.2913H61.4963V9.69272C61.4963 9.69272 61.493 9.20931 61.001 9.20931C61.001 9.20931 60.4865 9.23102 60.4865 9.63619V13.5735C60.4865 13.5735 60.4648 14.102 61.044 14.102C61.044 14.102 61.5193 14.0914 61.5193 13.5354V12.397H61.0014V11.3367H63.4386V13.5735C63.4386 13.5735 63.432 14.0438 63.237 14.3187C63.2378 14.3191 63.0404 14.6219 62.965 14.6784ZM56.0182 15.3167H53.7834L51.7904 10.9197H51.7064L51.8191 15.3163H49.9436V8.12655H52.2472L54.1722 12.4879H54.2546L54.1194 8.12573H56.0182V15.3167ZM44.2668 13.5309C44.2668 14.1401 44.8452 14.1094 44.8452 14.1094C45.3958 14.1094 45.3675 13.5158 45.3675 13.5158V8.09541H47.3774V13.5813C47.3774 15.558 44.8747 15.5281 44.8747 15.5281C41.9935 15.5281 42.2045 13.4871 42.2045 13.4871V8.095H44.2602L44.2668 13.5309ZM37.9504 10.3208V9.7087C37.9504 9.27404 37.4224 9.24536 37.4224 9.24536C37.0168 9.24536 36.9221 9.52025 36.9221 9.52025C36.6981 9.93976 37.0823 10.3019 37.0823 10.3019C37.2777 10.5186 38.2618 10.975 38.2618 10.975C38.5801 11.0979 39.0938 11.4166 39.0938 11.4166C40.0566 11.9955 39.9701 13.0955 39.9701 13.0955V13.8198C39.8542 15.6149 37.3793 15.5641 37.3793 15.5641C34.7874 15.5641 34.8439 13.8636 34.8439 13.8636V12.975H36.8607V13.5871C36.8607 14.1082 37.3642 14.1315 37.3642 14.1315C37.9148 14.1528 37.9603 13.6207 37.9603 13.6207C38.0365 13.1032 37.4658 12.7776 37.4658 12.7776C36.9619 12.5161 36.4601 12.2507 35.9602 11.9816C35.4965 11.6776 35.3089 11.4023 35.3089 11.4023C34.9762 10.9824 34.9971 10.3306 34.9971 10.3306V9.76606C34.9971 8.9844 35.2073 8.76031 35.2073 8.76031C35.7431 7.75416 37.6104 7.87706 37.6104 7.87706C39.9844 7.94261 39.8394 9.41906 39.8394 9.41906L39.8435 10.3208H37.9504ZM28.0188 8.1245L28.6247 12.0598H28.7725L29.4063 8.12491H32.5366L32.739 15.3155H30.857L30.8123 9.8992H30.6824L29.7021 15.3142H27.7336L26.741 9.89756H26.5939L26.5714 15.3159H24.7L24.8581 8.1245H28.0188ZM20.6754 15.3077L19.938 9.73328H19.7729L19.0351 15.3077H17.0207L18.2653 8.11835H21.4456L22.691 15.3077H20.6754Z" fill="white"/>
</svg>
