<svg width="71" height="11" viewBox="0 0 71 11" fill="none" xmlns="http://www.w3.org/2000/svg">
<path fill-rule="evenodd" clip-rule="evenodd" d="M5.98954 10.4293H3.21198V2.46754H0V0.0776943H9.3726V2.46754H5.98954V10.4293ZM10.6867 2.80932C11.1058 0.372781 13.2782 0.0156882 15.358 0.0156882C18.9275 0.0156882 20.1844 0.900206 20.1844 4.64036C20.1844 8.47352 20.0914 10.5066 15.4357 10.5066C13.589 10.5066 11.3852 10.3673 10.7644 8.24119C10.5627 7.54269 10.547 6.81356 10.547 6.08405V5.32317C10.547 4.50066 10.547 3.63183 10.6867 2.80932ZM13.3869 5.89729C13.3869 7.3563 13.4179 8.13212 15.1406 8.13212C17.0341 8.13212 17.3288 7.66633 17.3288 5.89729C17.3288 5.40087 17.3445 4.88876 17.3445 4.39196C17.3445 3.01065 17.1271 2.39022 15.6374 2.39022C13.465 2.39022 13.4336 2.60761 13.3873 5.27648V5.89729H13.3869ZM28.2993 3.30574C28.2993 2.25014 27.9265 2.11082 26.9337 2.11082H26.6543C25.9248 2.11082 25.149 2.14182 25.149 3.05734C25.149 3.69384 25.3354 3.98855 26.0025 4.03524C28.4077 4.23695 31.248 3.75584 31.248 7.09258C31.248 7.97748 31.248 9.0947 30.5185 9.71551C29.6646 10.4293 28.4853 10.4913 27.3991 10.4913H26.7163C23.8607 10.4913 22.3707 10.3673 22.3707 7.0769H25.0089C25.0089 7.85272 25.1953 8.31851 26.0641 8.31851H27.2591C27.9576 8.31851 28.516 8.22513 28.516 7.29392C28.516 6.3784 27.9729 6.37839 27.1967 6.33208C24.2017 6.13037 22.386 6.4094 22.386 2.96433C22.386 1.16392 23.0998 0.217394 24.9465 0.0776943C25.5516 0.031003 26.1568 0 26.7623 0C29.1678 0 30.9525 0.04669 30.9525 2.98002C30.9525 3.08872 30.9368 3.19741 30.9368 3.30611H28.2993V3.30574ZM42.5715 10.4293H39.7932V6.36308H36.1928V10.4293H33.4148V0.0776943H36.1928V3.98855H39.7932V0.0776943H42.5715V10.4293ZM47.9955 10.4293H45.218V0.0776943H47.9955V10.4293ZM50.6599 0.0776943H56.2935C58.1712 0.0776943 59.3818 0.589802 59.3818 2.71593C59.3818 3.91086 59.2731 4.87307 57.7682 5.12147V5.2141C59.1652 5.33849 59.5525 6.08331 59.5525 7.44893C59.5525 9.77677 58.7771 10.429 56.3402 10.429H50.6599V0.0776943ZM55.2073 4.22126C55.9681 4.19026 56.6349 4.28364 56.6349 3.33674C56.6349 2.59192 56.4336 2.35884 55.6887 2.35884H53.4382V4.22126H55.2073ZM55.2853 8.1478C56.1542 8.1478 56.7903 8.13212 56.7903 7.12359C56.7903 6.16137 56.3402 6.13037 55.4714 6.13037H53.4382V8.1478H55.2853ZM68.1164 10.4293H70.9411L67.79 0.0776943H63.5848L60.4804 10.4293H63.3674L63.9591 8.34988H67.5162L68.1164 10.4293ZM64.5294 6.34776L65.7266 2.14182L66.9398 6.34776H64.5294Z" fill="white"/>
</svg>
